# xmcd
#
# Track frame offsets: 
#        150
#        12890
#        25140
#        36560
#        49387
#        66032
#        81977
#        98070
#        115932
#        129620
#        148372
#
# Disc length: 2173 seconds
#
# Revision: 3
# Processed by: cddbd v1.5.2PL0 Copyright (c) Steve Scherf et al.
# Submitted via: ExactAudioCopy v0.95b4
#
DISCID=9e087b0b
DTITLE=The Kentucky Headhunters - Stompin' Grounds
DYEAR=1997
DGENRE=
TTITLE0=Neck Of The Woods
TTITLE1=Singin' The Blues
TTITLE2=Party Zone
TTITLE3=Private Part
TTITLE4=Kentucky Wildcat
TTITLE5=Runnin' Water
TTITLE6=Farmer's Daughter
TTITLE7=See Rock City
TTITLE8=Southern Belle
TTITLE9=Country Best
TTITLE10=Mr. Know-It-All
EXTD=
EXTT0=
EXTT1=
EXTT2=
EXTT3=
EXTT4=
EXTT5=
EXTT6=
EXTT7=
EXTT8=
EXTT9=
EXTT10=
PLAYORDER=
